<svg width="132" height="57" viewBox="0 0 132 57" fill="none" xmlns="http://www.w3.org/2000/svg">
<g filter="url(#filter0_d_103_107)">
<path d="M20.4665 36.28C18.8239 36.28 17.3959 35.9533 16.1825 35.3C14.9692 34.628 14.0265 33.7227 13.3545 32.584C12.6825 31.4267 12.3465 30.1107 12.3465 28.636C12.3465 27.4973 12.5332 26.452 12.9065 25.5C13.2799 24.548 13.8025 23.7267 14.4745 23.036C15.1465 22.3267 15.9399 21.7853 16.8545 21.412C17.7879 21.02 18.8052 20.824 19.9065 20.824C20.9519 20.824 21.9039 21.0107 22.7625 21.384C23.6399 21.7573 24.3959 22.28 25.0305 22.952C25.6652 23.624 26.1505 24.4173 26.4865 25.332C26.8225 26.2467 26.9719 27.2453 26.9345 28.328L26.9065 29.532H15.0625L14.4185 27.012H23.2665L22.7905 27.544V26.984C22.7532 26.5173 22.6039 26.1067 22.3425 25.752C22.0999 25.3787 21.7732 25.0893 21.3625 24.884C20.9519 24.6787 20.4852 24.576 19.9625 24.576C19.2345 24.576 18.6092 24.7253 18.0865 25.024C17.5825 25.304 17.1999 25.724 16.9385 26.284C16.6772 26.8253 16.5465 27.4973 16.5465 28.3C16.5465 29.1213 16.7145 29.84 17.0505 30.456C17.4052 31.0533 17.9092 31.52 18.5625 31.856C19.2345 32.192 20.0279 32.36 20.9425 32.36C21.5772 32.36 22.1372 32.2667 22.6225 32.08C23.1265 31.8933 23.6679 31.576 24.2465 31.128L26.3465 34.096C25.7679 34.6 25.1519 35.0107 24.4985 35.328C23.8452 35.6453 23.1732 35.8787 22.4825 36.028C21.8105 36.196 21.1385 36.28 20.4665 36.28ZM41.4993 36L35.4233 27.208L27.6393 16.4H33.4353L39.3713 25.08L47.2953 36H41.4993ZM27.4993 36L34.9753 25.332L38.8113 27.544L33.0153 36H27.4993ZM39.8193 26.9L36.0113 24.772L41.4993 16.4H47.0153L39.8193 26.9Z" fill="#3B44F6"/>
<path d="M56.1175 36.28C54.9789 36.28 53.9335 36.14 52.9815 35.86C52.0295 35.5613 51.1709 35.1227 50.4055 34.544C49.6402 33.9653 48.9589 33.2653 48.3615 32.444L50.7415 29.756C51.6562 31.0253 52.5522 31.9027 53.4295 32.388C54.3069 32.8733 55.2962 33.116 56.3975 33.116C57.0322 33.116 57.6109 33.0227 58.1335 32.836C58.6562 32.6307 59.0669 32.36 59.3655 32.024C59.6642 31.6693 59.8135 31.268 59.8135 30.82C59.8135 30.5027 59.7482 30.2133 59.6175 29.952C59.5055 29.672 59.3282 29.4293 59.0855 29.224C58.8429 29 58.5442 28.7947 58.1895 28.608C57.8349 28.4213 57.4335 28.2627 56.9855 28.132C56.5375 28.0013 56.0429 27.88 55.5015 27.768C54.4749 27.5627 53.5789 27.292 52.8135 26.956C52.0482 26.6013 51.4042 26.172 50.8815 25.668C50.3589 25.1453 49.9762 24.5667 49.7335 23.932C49.4909 23.2787 49.3695 22.5413 49.3695 21.72C49.3695 20.8987 49.5469 20.1427 49.9015 19.452C50.2749 18.7613 50.7789 18.164 51.4135 17.66C52.0482 17.156 52.7855 16.764 53.6255 16.484C54.4655 16.204 55.3709 16.064 56.3415 16.064C57.4429 16.064 58.4229 16.1947 59.2815 16.456C60.1589 16.7173 60.9242 17.1093 61.5775 17.632C62.2495 18.136 62.8002 18.752 63.2295 19.48L60.8215 21.86C60.4482 21.2813 60.0282 20.8053 59.5615 20.432C59.0949 20.04 58.5909 19.7507 58.0495 19.564C57.5082 19.3587 56.9389 19.256 56.3415 19.256C55.6695 19.256 55.0815 19.3493 54.5775 19.536C54.0922 19.7227 53.7095 19.9933 53.4295 20.348C53.1495 20.684 53.0095 21.0947 53.0095 21.58C53.0095 21.9533 53.0935 22.2893 53.2615 22.588C53.4295 22.868 53.6629 23.12 53.9615 23.344C54.2789 23.568 54.6802 23.764 55.1655 23.932C55.6509 24.1 56.2015 24.2493 56.8175 24.38C57.8442 24.5853 58.7682 24.8653 59.5895 25.22C60.4109 25.556 61.1109 25.9667 61.6895 26.452C62.2682 26.9187 62.7069 27.46 63.0055 28.076C63.3042 28.6733 63.4535 29.3453 63.4535 30.092C63.4535 31.38 63.1455 32.4907 62.5295 33.424C61.9322 34.3387 61.0829 35.048 59.9815 35.552C58.8802 36.0373 57.5922 36.28 56.1175 36.28ZM68.4362 36V17.492H71.8802V36H68.4362ZM65.5242 24.436V21.244H75.1002V24.436H65.5242ZM84.3343 36.28C82.8596 36.28 81.5436 35.9533 80.3863 35.3C79.229 34.628 78.3143 33.7133 77.6423 32.556C76.9703 31.3987 76.6343 30.0827 76.6343 28.608C76.6343 27.1333 76.9703 25.8173 77.6423 24.66C78.3143 23.5027 79.229 22.5973 80.3863 21.944C81.5436 21.272 82.8596 20.936 84.3343 20.936C85.7903 20.936 87.097 21.272 88.2543 21.944C89.4116 22.5973 90.317 23.5027 90.9703 24.66C91.6423 25.8173 91.9783 27.1333 91.9783 28.608C91.9783 30.0827 91.6423 31.3987 90.9703 32.556C90.317 33.7133 89.4116 34.628 88.2543 35.3C87.097 35.9533 85.7903 36.28 84.3343 36.28ZM84.3343 33.228C85.137 33.228 85.8463 33.0227 86.4623 32.612C87.097 32.2013 87.5916 31.6507 87.9463 30.96C88.3196 30.2693 88.497 29.4853 88.4783 28.608C88.497 27.712 88.3196 26.9187 87.9463 26.228C87.5916 25.5373 87.097 24.996 86.4623 24.604C85.8463 24.1933 85.137 23.988 84.3343 23.988C83.5316 23.988 82.8036 24.1933 82.1503 24.604C81.5156 24.996 81.021 25.5467 80.6663 26.256C80.3116 26.9467 80.1343 27.7307 80.1343 28.608C80.1343 29.4853 80.3116 30.2693 80.6663 30.96C81.021 31.6507 81.5156 32.2013 82.1503 32.612C82.8036 33.0227 83.5316 33.228 84.3343 33.228ZM95.059 36V21.244H98.447L98.503 25.948L98.027 24.884C98.2323 24.1373 98.587 23.4653 99.091 22.868C99.595 22.2707 100.174 21.804 100.827 21.468C101.499 21.1133 102.199 20.936 102.927 20.936C103.244 20.936 103.543 20.964 103.823 21.02C104.122 21.076 104.364 21.1413 104.551 21.216L103.627 24.996C103.422 24.884 103.17 24.7907 102.871 24.716C102.572 24.6413 102.274 24.604 101.975 24.604C101.508 24.604 101.06 24.6973 100.631 24.884C100.22 25.052 99.8563 25.2947 99.539 25.612C99.2216 25.9293 98.9696 26.3027 98.783 26.732C98.615 27.1427 98.531 27.6093 98.531 28.132V36H95.059ZM113.131 36.28C111.582 36.28 110.21 35.9533 109.015 35.3C107.839 34.6467 106.915 33.76 106.243 32.64C105.59 31.5013 105.263 30.204 105.263 28.748C105.263 27.5907 105.45 26.536 105.823 25.584C106.197 24.632 106.71 23.8107 107.363 23.12C108.035 22.4107 108.829 21.8693 109.743 21.496C110.677 21.104 111.694 20.908 112.795 20.908C113.766 20.908 114.671 21.0947 115.511 21.468C116.351 21.8413 117.079 22.3547 117.695 23.008C118.311 23.6427 118.778 24.408 119.095 25.304C119.431 26.1813 119.59 27.1427 119.571 28.188L119.543 29.392H107.587L106.943 27.04H116.659L116.211 27.516V26.9C116.155 26.3213 115.969 25.8173 115.651 25.388C115.334 24.94 114.923 24.5947 114.419 24.352C113.934 24.0907 113.393 23.96 112.795 23.96C111.881 23.96 111.106 24.1373 110.471 24.492C109.855 24.8467 109.389 25.36 109.071 26.032C108.754 26.6853 108.595 27.5067 108.595 28.496C108.595 29.448 108.791 30.2787 109.183 30.988C109.594 31.6973 110.163 32.248 110.891 32.64C111.638 33.0133 112.506 33.2 113.495 33.2C114.186 33.2 114.821 33.088 115.399 32.864C115.978 32.64 116.603 32.2387 117.275 31.66L118.983 34.04C118.479 34.5067 117.901 34.908 117.247 35.244C116.613 35.5613 115.941 35.8133 115.231 36C114.522 36.1867 113.822 36.28 113.131 36.28Z" fill="#F5F4F9"/>
</g>
<defs>
<filter id="filter0_d_103_107" x="-11" y="-4" width="154" height="75" filterUnits="userSpaceOnUse" color-interpolation-filters="sRGB">
<feFlood flood-opacity="0" result="BackgroundImageFix"/>
<feColorMatrix in="SourceAlpha" type="matrix" values="0 0 0 0 0 0 0 0 0 0 0 0 0 0 0 0 0 0 127 0" result="hardAlpha"/>
<feOffset dy="8"/>
<feGaussianBlur stdDeviation="6"/>
<feComposite in2="hardAlpha" operator="out"/>
<feColorMatrix type="matrix" values="0 0 0 0 0.55 0 0 0 0 0.55 0 0 0 0 0.55 0 0 0 0.15 0"/>
<feBlend mode="normal" in2="BackgroundImageFix" result="effect1_dropShadow_103_107"/>
<feBlend mode="normal" in="SourceGraphic" in2="effect1_dropShadow_103_107" result="shape"/>
</filter>
</defs>
</svg>
